<svg width="55" height="55" viewBox="0 0 55 55" fill="none" xmlns="http://www.w3.org/2000/svg">
<path d="M27.2466 54.4925C12.2226 54.4925 0 42.2699 0 27.2463C0 12.2226 12.2226 0 27.2466 0C42.2703 0 54.4929 12.2226 54.4929 27.2463C54.4929 42.2699 42.2703 54.4925 27.2466 54.4925Z" fill="#007AB9"/>
<path d="M42.65 29.3208V39.4943C42.65 39.7457 42.4462 39.9495 42.1948 39.9495H36.9428C36.6915 39.9495 36.4877 39.7457 36.4877 39.4943V30.0331C36.4877 27.5432 35.598 25.8428 33.3668 25.8428C31.6642 25.8428 30.6527 26.9876 30.206 28.096C30.0438 28.4922 30.002 29.0423 30.002 29.5979V39.4939C30.002 39.7452 29.7982 39.949 29.5468 39.949H24.2965C24.0444 39.949 23.8402 39.746 23.8414 39.4938C23.8531 36.9744 23.9062 24.7494 23.8523 21.876C23.8475 21.6215 24.0527 21.4154 24.3073 21.4154H29.5473C29.7986 21.4154 30.0024 21.6192 30.0024 21.8705V24.0418C29.99 24.0625 29.9725 24.0827 29.9615 24.1025H30.0024V24.0418C30.8213 22.7817 32.2818 20.9802 35.5562 20.9802C39.6104 20.9802 42.65 23.6291 42.65 29.3208ZM14.7268 39.9495H19.977C20.2283 39.9495 20.4321 39.7457 20.4321 39.4943V21.8705C20.4321 21.6192 20.2283 21.4154 19.977 21.4154H14.7268C14.4754 21.4154 14.2717 21.6192 14.2717 21.8705V39.4943C14.2717 39.7457 14.4754 39.9495 14.7268 39.9495Z" fill="white"/>
<path d="M17.1676 19.0579C18.9894 19.0579 20.4661 17.5811 20.4661 15.7594C20.4661 13.9377 18.9894 12.4609 17.1676 12.4609C15.3459 12.4609 13.8691 13.9377 13.8691 15.7594C13.8691 17.5811 15.3459 19.0579 17.1676 19.0579Z" fill="white"/>
</svg>
