<svg width="55" height="55" viewBox="0 0 55 55" fill="none" xmlns="http://www.w3.org/2000/svg">
<path d="M27.2928 54.585C12.2434 54.585 0 42.3416 0 27.2926C0 12.2433 12.2434 0 27.2928 0C42.3419 0 54.5853 12.2433 54.5853 27.2926C54.5853 42.3416 42.3419 54.585 27.2928 54.585Z" fill="#3C5A99"/>
<path fill-rule="evenodd" clip-rule="evenodd" d="M23.0127 27.4213V43.2396C23.0127 43.4671 23.1971 43.6515 23.4247 43.6515H29.2989C29.5264 43.6515 29.7109 43.4671 29.7109 43.2396V27.1636H33.9695C34.1836 27.1636 34.3619 26.9997 34.38 26.7864L34.7896 21.9427C34.8099 21.7023 34.6203 21.4959 34.379 21.4959H29.7109V18.0594C29.7109 17.254 30.3638 16.6011 31.1692 16.6011H34.4513C34.6789 16.6011 34.8634 16.4166 34.8634 16.1891V11.3454C34.8634 11.1179 34.6789 10.9334 34.4513 10.9334H28.9054C25.651 10.9334 23.0127 13.5717 23.0127 16.8262V21.4959H20.0756C19.848 21.4959 19.6636 21.6804 19.6636 21.908V26.7517C19.6636 26.9792 19.848 27.1636 20.0756 27.1636H23.0127V27.4213Z" fill="white"/>
</svg>
