<svg width="23" height="23" viewBox="0 0 23 23" fill="none" xmlns="http://www.w3.org/2000/svg">
<path d="M7.1875 10.7812H14.375V4.3125C14.375 4.12188 14.2993 3.93906 14.1645 3.80427C14.0297 3.66948 13.8469 3.59375 13.6562 3.59375H2.875C2.68438 3.59375 2.50156 3.66948 2.36677 3.80427C2.23198 3.93906 2.15625 4.12188 2.15625 4.3125V18.6875C2.15625 18.8781 2.23198 19.0609 2.36677 19.1957C2.50156 19.3305 2.68438 19.4062 2.875 19.4062H13.6562C13.8469 19.4062 14.0297 19.3305 14.1645 19.1957C14.2993 19.0609 14.375 18.8781 14.375 18.6875V12.2188H7.1875V10.7812Z" fill="#828282"/>
<path d="M20.6331 10.9919L16.5313 6.88965L15.5147 7.90623L18.3897 10.7812H14.375V12.2187H18.3897L15.5147 15.0937L16.5313 16.1103L20.6331 12.008C20.7678 11.8733 20.8434 11.6905 20.8434 11.5C20.8434 11.3094 20.7678 11.1267 20.6331 10.9919Z" fill="#828282"/>
</svg>
