<svg width="42" height="42" viewBox="0 0 42 42" fill="none" xmlns="http://www.w3.org/2000/svg">
<path d="M21 0C14.8937 0 9.92578 4.96789 9.92578 11.0742C9.92578 17.1805 14.8937 22.1484 21 22.1484C27.1063 22.1484 32.0742 17.1805 32.0742 11.0742C32.0742 4.96789 27.1063 0 21 0ZM21 19.6875C16.2506 19.6875 12.3867 15.8236 12.3867 11.0742C12.3867 6.32486 16.2506 2.46094 21 2.46094C25.7494 2.46094 29.6133 6.32486 29.6133 11.0742C29.6133 15.8236 25.7494 19.6875 21 19.6875Z" fill="#BDBDBD"/>
<path d="M24.4316 24.6914H17.5683C11.8916 24.6914 6.28925 27.3124 2.54297 32.9321V42H39.457V32.9321C35.7162 27.3205 30.1154 24.6914 24.4316 24.6914ZM36.9962 39.5391H36.9961H5.00391V33.6851C7.87754 29.5873 12.5468 27.1523 17.5684 27.1523H24.4317C29.4532 27.1523 34.1225 29.5873 36.9962 33.6851V39.5391Z" fill="#BDBDBD"/>
</svg>
