<svg width="55" height="55" viewBox="0 0 55 55" fill="none" xmlns="http://www.w3.org/2000/svg">
<g clip-path="url(#clip0)">
<path d="M27.2928 54.585C12.2434 54.585 0 42.3416 0 27.2926C0 12.2433 12.2434 0 27.2928 0C42.3419 0 54.5853 12.2433 54.5853 27.2926C54.5853 42.3416 42.3419 54.585 27.2928 54.585Z" fill="#ED3A3A"/>
<path d="M40.125 25.375V21H37.9375V25.375H33.5625V27.5625H37.9375V31.9375H40.125V27.5625H44.5V25.375H40.125ZM20.4375 25.375V29.75H26.6255C26.1715 31.0286 25.3331 32.1355 24.2253 32.9188C23.1174 33.702 21.7943 34.1234 20.4375 34.125C18.6977 34.1227 17.0299 33.4305 15.7997 32.2003C14.5695 30.9701 13.8773 29.3023 13.875 27.5625C13.8773 25.8227 14.5695 24.1549 15.7997 22.9247C17.0299 21.6945 18.6977 21.0023 20.4375 21C22.0055 21 23.5158 21.5618 24.6883 22.5838L27.56 19.285C25.5849 17.5675 23.055 16.6226 20.4375 16.625C17.5377 16.6282 14.7576 17.7816 12.7071 19.8321C10.6566 21.8826 9.50324 24.6627 9.5 27.5625C9.50324 30.4623 10.6566 33.2424 12.7071 35.2929C14.7576 37.3434 17.5377 38.4968 20.4375 38.5C23.3373 38.4968 26.1174 37.3434 28.1679 35.2929C30.2184 33.2424 31.3718 30.4623 31.375 27.5625V25.375H20.4375Z" fill="white"/>
</g>
<defs>
<clipPath id="clip0">
<rect width="54.5853" height="54.585" fill="white"/>
</clipPath>
</defs>
</svg>
