<svg width="auto" height="auto" viewBox="0 0 288 68" fill="none" xmlns="http://www.w3.org/2000/svg">
<path d="M6.73828 34.9297L17.8711 38.8555V44.3242L1.05469 37.1953V32.5859L17.8711 25.457V30.9258L6.73828 34.9297ZM24.2969 49.4414H20.0977L30.5664 18.5625H34.7656L24.2969 49.4414ZM49.0039 34.8711L37.6562 30.9062V25.4766L54.668 32.6055V37.1953L37.6562 44.3438V38.8945L49.0039 34.8711Z" fill="white"/>
<line x1="72.5" y1="1" x2="72.5" y2="66" stroke="white" stroke-width="3"/>
<path d="M95.0791 28H91.3877V6.67188H95.0791V28ZM99.6348 28V6.67188H106.944C109.356 6.67188 111.192 7.15527 112.452 8.12207C113.712 9.08887 114.342 10.5293 114.342 12.4434C114.342 13.4199 114.078 14.2988 113.551 15.0801C113.023 15.8613 112.252 16.4668 111.236 16.8965C112.389 17.209 113.277 17.7998 113.902 18.6689C114.537 19.5283 114.854 20.5635 114.854 21.7744C114.854 23.7764 114.21 25.3145 112.921 26.3887C111.642 27.4629 109.806 28 107.413 28H99.6348ZM103.341 18.376V25.041H107.457C108.619 25.041 109.527 24.7529 110.182 24.1768C110.836 23.6006 111.163 22.7998 111.163 21.7744C111.163 19.5576 110.03 18.4248 107.765 18.376H103.341ZM103.341 15.6514H106.974C108.126 15.6514 109.024 15.3926 109.669 14.875C110.323 14.3477 110.65 13.6055 110.65 12.6484C110.65 11.5938 110.348 10.832 109.742 10.3633C109.146 9.89453 108.214 9.66016 106.944 9.66016H103.341V15.6514ZM130.499 23.0342H122.237L120.509 28H116.656L124.713 6.67188H128.038L136.109 28H132.242L130.499 23.0342ZM123.277 20.0459H129.459L126.368 11.1982L123.277 20.0459Z" fill="white"/>
<path d="M106.578 42.6602H99.9277V61H96.251V42.6602H89.6592V39.6719H106.578V42.6602ZM114.708 61.293C112.452 61.293 110.621 60.585 109.215 59.1689C107.818 57.7432 107.12 55.8486 107.12 53.4854V53.0459C107.12 51.4639 107.423 50.0527 108.028 48.8125C108.644 47.5625 109.503 46.5908 110.606 45.8975C111.71 45.2041 112.94 44.8574 114.298 44.8574C116.456 44.8574 118.121 45.5459 119.293 46.9229C120.475 48.2998 121.065 50.248 121.065 52.7676V54.2031H110.709C110.816 55.5117 111.251 56.5469 112.013 57.3086C112.784 58.0703 113.751 58.4512 114.913 58.4512C116.544 58.4512 117.872 57.792 118.897 56.4736L120.816 58.3047C120.182 59.252 119.332 59.9893 118.268 60.5166C117.213 61.0342 116.026 61.293 114.708 61.293ZM114.283 47.7139C113.307 47.7139 112.516 48.0557 111.91 48.7393C111.314 49.4229 110.934 50.375 110.768 51.5957H117.55V51.332C117.472 50.1406 117.154 49.2422 116.598 48.6367C116.041 48.0215 115.27 47.7139 114.283 47.7139ZM130.353 58.4512C131.241 58.4512 131.979 58.1924 132.564 57.6748C133.15 57.1572 133.463 56.5176 133.502 55.7559H136.856C136.817 56.7422 136.51 57.665 135.934 58.5244C135.357 59.374 134.576 60.0479 133.59 60.5459C132.604 61.0439 131.539 61.293 130.396 61.293C128.18 61.293 126.422 60.5752 125.123 59.1396C123.824 57.7041 123.175 55.7217 123.175 53.1924V52.8262C123.175 50.4141 123.819 48.4854 125.108 47.04C126.397 45.585 128.155 44.8574 130.382 44.8574C132.267 44.8574 133.8 45.4092 134.981 46.5127C136.173 47.6064 136.798 49.0469 136.856 50.834H133.502C133.463 49.9258 133.15 49.1787 132.564 48.5928C131.988 48.0068 131.251 47.7139 130.353 47.7139C129.2 47.7139 128.312 48.1338 127.687 48.9736C127.062 49.8037 126.744 51.0684 126.734 52.7676V53.3389C126.734 55.0576 127.042 56.3418 127.657 57.1914C128.282 58.0312 129.181 58.4512 130.353 58.4512ZM143.053 46.8789C144.215 45.5312 145.685 44.8574 147.462 44.8574C150.841 44.8574 152.555 46.7861 152.604 50.6436V61H149.044V50.7754C149.044 49.6816 148.805 48.9102 148.326 48.4609C147.857 48.002 147.164 47.7725 146.246 47.7725C144.82 47.7725 143.756 48.4072 143.053 49.6768V61H139.493V38.5H143.053V46.8789ZM175.968 56.0342H167.706L165.978 61H162.125L170.182 39.6719H173.507L181.578 61H177.711L175.968 56.0342ZM168.746 53.0459H174.928L171.837 44.1982L168.746 53.0459ZM190.177 58.4512C191.065 58.4512 191.803 58.1924 192.389 57.6748C192.975 57.1572 193.287 56.5176 193.326 55.7559H196.681C196.642 56.7422 196.334 57.665 195.758 58.5244C195.182 59.374 194.4 60.0479 193.414 60.5459C192.428 61.0439 191.363 61.293 190.221 61.293C188.004 61.293 186.246 60.5752 184.947 59.1396C183.648 57.7041 182.999 55.7217 182.999 53.1924V52.8262C182.999 50.4141 183.644 48.4854 184.933 47.04C186.222 45.585 187.979 44.8574 190.206 44.8574C192.091 44.8574 193.624 45.4092 194.806 46.5127C195.997 47.6064 196.622 49.0469 196.681 50.834H193.326C193.287 49.9258 192.975 49.1787 192.389 48.5928C191.812 48.0068 191.075 47.7139 190.177 47.7139C189.024 47.7139 188.136 48.1338 187.511 48.9736C186.886 49.8037 186.568 51.0684 186.559 52.7676V53.3389C186.559 55.0576 186.866 56.3418 187.481 57.1914C188.106 58.0312 189.005 58.4512 190.177 58.4512ZM208.839 61C208.683 60.6973 208.546 60.2041 208.429 59.5205C207.296 60.7021 205.909 61.293 204.269 61.293C202.677 61.293 201.378 60.8389 200.372 59.9307C199.366 59.0225 198.863 57.8994 198.863 56.5615C198.863 54.8721 199.488 53.5781 200.738 52.6797C201.998 51.7715 203.795 51.3174 206.129 51.3174H208.312V50.2773C208.312 49.457 208.082 48.8027 207.623 48.3145C207.164 47.8164 206.466 47.5674 205.528 47.5674C204.718 47.5674 204.054 47.7725 203.536 48.1826C203.019 48.583 202.76 49.0957 202.76 49.7207H199.2C199.2 48.8516 199.488 48.041 200.064 47.2891C200.641 46.5273 201.422 45.9316 202.408 45.502C203.404 45.0723 204.513 44.8574 205.733 44.8574C207.589 44.8574 209.068 45.3262 210.172 46.2637C211.275 47.1914 211.842 48.5 211.871 50.1895V57.3379C211.871 58.7637 212.071 59.9014 212.472 60.751V61H208.839ZM204.928 58.4365C205.631 58.4365 206.29 58.2656 206.905 57.9238C207.53 57.582 207.999 57.123 208.312 56.5469V53.5586H206.393C205.074 53.5586 204.083 53.7881 203.419 54.2471C202.755 54.7061 202.423 55.3555 202.423 56.1953C202.423 56.8789 202.647 57.4258 203.097 57.8359C203.556 58.2363 204.166 58.4365 204.928 58.4365ZM214.933 52.958C214.933 50.5166 215.499 48.5586 216.632 47.084C217.765 45.5996 219.283 44.8574 221.188 44.8574C222.867 44.8574 224.225 45.4434 225.26 46.6152V38.5H228.819V61H225.597L225.421 59.3594C224.356 60.6484 222.936 61.293 221.158 61.293C219.303 61.293 217.799 60.5459 216.646 59.0518C215.504 57.5576 214.933 55.5264 214.933 52.958ZM218.492 53.2656C218.492 54.877 218.8 56.1367 219.415 57.0449C220.04 57.9434 220.924 58.3926 222.066 58.3926C223.521 58.3926 224.586 57.7432 225.26 56.4443V49.6768C224.605 48.4072 223.551 47.7725 222.096 47.7725C220.943 47.7725 220.055 48.2314 219.43 49.1494C218.805 50.0576 218.492 51.4297 218.492 53.2656ZM239.513 61.293C237.257 61.293 235.426 60.585 234.02 59.1689C232.623 57.7432 231.925 55.8486 231.925 53.4854V53.0459C231.925 51.4639 232.228 50.0527 232.833 48.8125C233.448 47.5625 234.308 46.5908 235.411 45.8975C236.515 45.2041 237.745 44.8574 239.103 44.8574C241.261 44.8574 242.926 45.5459 244.098 46.9229C245.279 48.2998 245.87 50.248 245.87 52.7676V54.2031H235.514C235.621 55.5117 236.056 56.5469 236.817 57.3086C237.589 58.0703 238.556 58.4512 239.718 58.4512C241.349 58.4512 242.677 57.792 243.702 56.4736L245.621 58.3047C244.986 59.252 244.137 59.9893 243.072 60.5166C242.018 61.0342 240.831 61.293 239.513 61.293ZM239.088 47.7139C238.111 47.7139 237.32 48.0557 236.715 48.7393C236.119 49.4229 235.738 50.375 235.572 51.5957H242.354V51.332C242.276 50.1406 241.959 49.2422 241.402 48.6367C240.846 48.0215 240.074 47.7139 239.088 47.7139ZM251.993 45.1504L252.096 46.8057C253.209 45.5068 254.732 44.8574 256.666 44.8574C258.785 44.8574 260.235 45.668 261.017 47.2891C262.169 45.668 263.79 44.8574 265.88 44.8574C267.628 44.8574 268.927 45.3408 269.776 46.3076C270.636 47.2744 271.075 48.7002 271.095 50.585V61H267.535V50.6875C267.535 49.6816 267.315 48.9443 266.876 48.4756C266.437 48.0068 265.709 47.7725 264.693 47.7725C263.883 47.7725 263.219 47.9922 262.701 48.4316C262.193 48.8613 261.837 49.4277 261.632 50.1309L261.646 61H258.087V50.5703C258.038 48.7051 257.086 47.7725 255.23 47.7725C253.805 47.7725 252.794 48.3535 252.198 49.5156V61H248.639V45.1504H251.993ZM280.294 55.9023L283.517 45.1504H287.311L281.012 63.4023C280.045 66.0684 278.404 67.4014 276.09 67.4014C275.572 67.4014 275.001 67.3135 274.376 67.1377V64.3838L275.05 64.4277C275.948 64.4277 276.622 64.2617 277.071 63.9297C277.53 63.6074 277.892 63.0605 278.155 62.2891L278.668 60.9268L273.102 45.1504H276.939L280.294 55.9023Z" fill="white"/>
</svg>
