<svg width="42" height="42" viewBox="0 0 42 42" fill="none" xmlns="http://www.w3.org/2000/svg">
<g clip-path="url(#clip0)">
<path d="M32.8125 42H9.1875C7.0175 42 5.25 40.2343 5.25 38.0625V19.6875C5.25 17.5157 7.0175 15.75 9.1875 15.75H32.8125C34.9825 15.75 36.75 17.5157 36.75 19.6875V38.0625C36.75 40.2343 34.9825 42 32.8125 42ZM9.1875 18.375C8.46475 18.375 7.875 18.963 7.875 19.6875V38.0625C7.875 38.787 8.46475 39.375 9.1875 39.375H32.8125C33.5352 39.375 34.125 38.787 34.125 38.0625V19.6875C34.125 18.963 33.5352 18.375 32.8125 18.375H9.1875Z" fill="#BDBDBD"/>
<path d="M30.1875 18.375C29.463 18.375 28.875 17.787 28.875 17.0625V10.5C28.875 6.15825 25.3418 2.625 21 2.625C16.6582 2.625 13.125 6.15825 13.125 10.5V17.0625C13.125 17.787 12.537 18.375 11.8125 18.375C11.088 18.375 10.5 17.787 10.5 17.0625V10.5C10.5 4.70925 15.2092 0 21 0C26.7908 0 31.5 4.70925 31.5 10.5V17.0625C31.5 17.787 30.912 18.375 30.1875 18.375Z" fill="#BDBDBD"/>
<path d="M20.9999 29.75C19.0696 29.75 17.4999 28.1802 17.4999 26.25C17.4999 24.3197 19.0696 22.75 20.9999 22.75C22.9301 22.75 24.4999 24.3197 24.4999 26.25C24.4999 28.1802 22.9301 29.75 20.9999 29.75ZM20.9999 25.375C20.5186 25.375 20.1249 25.767 20.1249 26.25C20.1249 26.733 20.5186 27.125 20.9999 27.125C21.4811 27.125 21.8749 26.733 21.8749 26.25C21.8749 25.767 21.4811 25.375 20.9999 25.375Z" fill="#BDBDBD"/>
<path d="M21 35C20.2755 35 19.6875 34.412 19.6875 33.6875V28.875C19.6875 28.1505 20.2755 27.5625 21 27.5625C21.7245 27.5625 22.3125 28.1505 22.3125 28.875V33.6875C22.3125 34.412 21.7245 35 21 35Z" fill="#BDBDBD"/>
</g>
<defs>
<clipPath id="clip0">
<rect width="42" height="42" fill="white"/>
</clipPath>
</defs>
</svg>
