<svg width="42" height="32" viewBox="0 0 42 32" fill="none" xmlns="http://www.w3.org/2000/svg">
<path d="M38.3086 0.00390625H3.69141C1.65851 0.00390625 0 1.66061 0 3.69531V28.3047C0 30.3325 1.65113 31.9961 3.69141 31.9961H38.3086C40.3364 31.9961 42 30.345 42 28.3047V3.69531C42 1.6675 40.3489 0.00390625 38.3086 0.00390625ZM37.7989 2.46484L21.0783 19.1855L4.21304 2.46484H37.7989ZM2.46094 27.7951V4.19316L14.3127 15.9433L2.46094 27.7951ZM4.20107 29.5352L16.0603 17.6759L20.2158 21.7957C20.6968 22.2726 21.4731 22.271 21.9521 21.7919L26.0039 17.7401L37.7989 29.5352H4.20107ZM39.5391 27.795L27.744 16L39.5391 4.20489V27.795Z" fill="#BDBDBD"/>
</svg>
