<svg width="55" height="55" viewBox="0 0 55 55" fill="none" xmlns="http://www.w3.org/2000/svg">
<path d="M27.2925 54.585C12.2434 54.585 0 42.3416 0 27.2926C0 12.2433 12.2434 0 27.2925 0C42.3419 0 54.5853 12.2433 54.5853 27.2926C54.5853 42.3416 42.3419 54.585 27.2925 54.585Z" fill="#33CCFF"/>
<path d="M42.9786 17.3321C41.968 17.7894 40.8557 18.0669 39.7651 18.25C40.2828 18.1631 41.046 17.2257 41.351 16.8467C41.8164 16.2685 42.2036 15.6096 42.4212 14.8981C42.4489 14.8425 42.47 14.7727 42.4145 14.7307C42.3447 14.7029 42.2997 14.7171 42.2442 14.745C41.0268 15.3973 39.7676 15.8706 38.4275 16.2055C38.3164 16.2333 38.234 16.2055 38.1642 16.1357C38.0531 16.0104 37.9488 15.8922 37.8306 15.7946C37.2674 15.3154 36.663 14.9394 35.9815 14.6616C35.0868 14.2969 34.1092 14.1424 33.1457 14.205C32.2081 14.2658 31.2874 14.5301 30.4552 14.9649C29.6213 15.4006 28.8773 16.0066 28.2848 16.7378C27.6719 17.4941 27.2199 18.3873 26.9885 19.3338C26.7652 20.2474 26.7835 21.1512 26.9198 22.0748C26.9405 22.2279 26.927 22.2486 26.7882 22.2279C21.5456 21.4478 17.1999 19.5717 13.6722 15.5518C13.5191 15.3773 13.4359 15.3773 13.3104 15.5653C11.7667 17.8791 12.5158 21.5967 14.4442 23.4236C14.7012 23.6671 14.9654 23.9107 15.2502 24.1329C15.1463 24.1542 13.8629 24.0152 12.7194 23.4236C12.5663 23.3268 12.4894 23.3823 12.4758 23.5561C12.4616 23.806 12.483 24.0361 12.5172 24.3073C12.8135 26.6529 14.4379 28.8225 16.6624 29.6689C16.9266 29.78 17.2186 29.8776 17.5034 29.926C16.9965 30.0371 16.4746 30.1166 15.021 30.0029C14.8401 29.968 14.771 30.0585 14.8401 30.2323C15.9324 33.2093 18.2901 34.095 20.0557 34.5997C20.2921 34.641 20.5286 34.641 20.7657 34.6965C20.7514 34.7179 20.7372 34.7179 20.7237 34.7385C20.138 35.6314 18.1074 36.2959 17.1619 36.6263C15.4422 37.2273 13.5698 37.4978 11.7523 37.3186C11.4614 37.2759 11.4003 37.279 11.3215 37.3186C11.2417 37.3679 11.3114 37.4374 11.4048 37.513C11.7737 37.7565 12.149 37.9723 12.5315 38.181C13.6857 38.7927 14.8892 39.2797 16.1475 39.6273C22.646 41.422 29.9662 40.1032 34.8456 35.2552C38.6774 31.4481 40.0204 26.1979 40.0204 20.9411C40.0204 20.7353 40.2635 20.6217 40.408 20.5132C41.4049 19.7641 42.1972 18.8677 42.9409 17.8668C43.108 17.6419 43.0977 17.4419 43.0977 17.3599C43.0977 17.3456 43.0977 17.3321 43.0977 17.3321C43.0977 17.2481 43.108 17.2733 42.9786 17.3321Z" fill="white"/>
<path fill-rule="evenodd" clip-rule="evenodd" d="M20.7339 40.281C20.6921 40.2842 20.2089 40.281 20.7339 40.281C20.7339 40.281 20.6498 40.281 20.7339 40.281Z" fill="white"/>
<path fill-rule="evenodd" clip-rule="evenodd" d="M21.8049 40.3089C21.8049 40.2553 22.3686 40.3089 21.8049 40.3089C21.8049 40.2811 21.874 40.3089 21.8049 40.3089Z" fill="white"/>
<path fill-rule="evenodd" clip-rule="evenodd" d="M33.0565 14.2301C33.0216 14.2578 32.9731 14.2578 32.9248 14.2301C32.9731 14.2301 33.0216 14.2301 33.0565 14.2301Z" fill="white"/>
</svg>
